<?xml version="1.0" standalone="no"?>
<!DOCTYPE svg PUBLIC "-//W3C//DTD SVG 20010904//EN"
 "http://www.w3.org/TR/2001/REC-SVG-20010904/DTD/svg10.dtd">
<svg version="1.0" xmlns="http://www.w3.org/2000/svg"
 width="192.000000pt" height="192.000000pt" viewBox="0 0 192.000000 192.000000"
 preserveAspectRatio="xMidYMid meet">
<metadata>
Created by potrace 1.10, written by Peter Selinger 2001-2011
</metadata>
<g transform="translate(0.000000,192.000000) scale(0.100000,-0.100000)"
fill="#000000" stroke="none">
<path d="M627 1640 c-76 -23 -137 -108 -137 -190 0 -128 130 -227 251 -191 45
13 103 61 124 100 79 154 -71 331 -238 281z"/>
<path d="M1095 1636 c-34 -15 -92 -76 -106 -113 -13 -36 -11 -109 5 -146 17
-39 71 -92 109 -106 49 -19 128 -13 172 12 67 38 114 132 99 200 -22 102 -98
167 -193 167 -31 -1 -70 -7 -86 -14z"/>
<path d="M867 1254 c-27 -18 -65 -38 -85 -44 -57 -16 -152 -11 -212 10 -30 11
-58 19 -62 20 -4 0 -23 -28 -44 -62 -26 -42 -34 -63 -25 -66 29 -10 95 -70
112 -102 17 -32 19 -63 19 -388 l0 -352 168 2 167 3 7 55 c4 30 11 87 14 125
8 84 17 62 28 -65 11 -133 -12 -120 213 -120 l196 0 -6 58 c-4 31 -27 124 -51
205 -25 81 -51 176 -57 212 l-11 64 36 47 c20 26 36 55 36 66 0 53 25 113 66
155 l42 45 -35 59 c-20 33 -41 58 -47 55 -68 -30 -154 -48 -198 -43 -53 7
-143 44 -185 77 -14 11 -28 20 -32 19 -3 -1 -28 -16 -54 -35z"/>
<path d="M1498 1010 c-75 -22 -118 -84 -118 -168 0 -60 29 -107 85 -139 51
-29 99 -29 155 0 135 68 111 265 -38 307 -42 11 -47 11 -84 0z"/>
<path d="M216 987 c-45 -25 -86 -93 -86 -141 0 -41 38 -115 71 -139 31 -22 94
-32 144 -23 74 14 134 111 119 192 -8 41 -53 98 -95 120 -41 21 -108 17 -153
-9z"/>
<path d="M150 628 c-22 -86 -63 -195 -105 -275 l-42 -83 274 0 273 0 -43 88
c-53 104 -82 188 -92 259 l-7 52 -40 -15 c-52 -18 -105 -18 -158 1 -23 8 -44
15 -46 15 -2 0 -8 -19 -14 -42z"/>
<path d="M1410 470 l0 -190 90 0 90 0 0 77 0 77 61 -82 61 -82 104 0 104 0
-27 44 c-16 24 -71 111 -123 194 -89 142 -97 151 -120 144 -33 -9 -178 -9
-212 1 l-28 7 0 -190z"/>
</g>
</svg>
